<?xml version="1.0" standalone="no"?><!DOCTYPE svg PUBLIC "-//W3C//DTD SVG 1.1//EN" "http://www.w3.org/Graphics/SVG/1.1/DTD/svg11.dtd"><svg t="1548225254964" class="icon" style="" viewBox="0 0 1024 1024" version="1.1" xmlns="http://www.w3.org/2000/svg" p-id="4017" xmlns:xlink="http://www.w3.org/1999/xlink" width="200" height="200"><defs><style type="text/css"></style></defs><path d="M889.98475 893.042389l-755.9695-0.008186c-37.902238 0-68.724221-30.830169-68.724221-68.724221V409.428903c0-44.312228 28.221762-83.573417 70.218248-97.709369l115.87203-38.993083 50.251498-103.145171c11.426237-23.464411 35.687804-38.623669 61.778018-38.623669h297.179377c26.107611 0 50.369178 15.167444 61.795415 38.641065l50.217728 103.128799 115.888404 38.993082c41.996486 14.135952 70.218248 53.397141 70.218248 97.70937v414.889265c-0.001023 37.893029-30.823006 68.723198-68.725245 68.723197zM363.4098 199.681832l-56.543807 116.073622a34.353412 34.353412 0 0 1-19.932982 17.516955l-129.512702 43.581588a34.352389 34.352389 0 0 0-23.406083 32.574906v414.881079l755.969501 0.008186v-414.889265a34.352389 34.352389 0 0 0-23.406083-32.574906l-129.530098-43.581588a34.332946 34.332946 0 0 1-19.932982-17.525142l-56.510038-116.064412H363.4098z" fill="#d81e06" p-id="4018"></path><path d="M512 726.760249c-99.479689 0-180.40172-80.931241-180.40172-180.40172s80.922031-180.40172 180.40172-180.40172 180.40172 80.931241 180.40172 180.40172-80.922031 180.40172-180.40172 180.40172z m0-274.898931c-52.097542 0-94.496188 42.390459-94.496188 94.496188s42.398646 94.496188 94.496188 94.496187 94.496188-42.390459 94.496188-94.496187-42.399669-94.496188-94.496188-94.496188z" fill="#d81e06" p-id="4019"></path></svg>