<?xml version="1.0" standalone="no"?><!DOCTYPE svg PUBLIC "-//W3C//DTD SVG 1.1//EN" "http://www.w3.org/Graphics/SVG/1.1/DTD/svg11.dtd"><svg t="1602742756531" class="icon" viewBox="0 0 1024 1024" version="1.1" xmlns="http://www.w3.org/2000/svg" p-id="2980" xmlns:xlink="http://www.w3.org/1999/xlink" width="200" height="200"><defs><style type="text/css"></style></defs><path d="M749.4656 226.3552c-3.4816 0-7.0144-1.1776-9.9328-3.6352a15.39072 15.39072 0 0 1-1.792-21.6576l69.7856-82.5344a15.39072 15.39072 0 0 1 21.6576-1.792 15.39072 15.39072 0 0 1 1.792 21.6576l-69.7856 82.5344c-3.0208 3.5328-7.3728 5.4272-11.7248 5.4272zM846.592 366.336c-6.144 0-11.9296-3.6864-14.2848-9.7792-3.072-7.8848 0.8192-16.7936 8.704-19.9168l103.168-40.448a15.36 15.36 0 0 1 19.9168 8.704c3.072 7.8848-0.8192 16.7936-8.704 19.9168l-103.168 40.448a14.848 14.848 0 0 1-5.632 1.0752zM983.1424 555.52c-0.7168 0-1.4336-0.0512-2.1504-0.1536l-111.2576-15.5136a15.40096 15.40096 0 0 1-13.1072-17.3568 15.37024 15.37024 0 0 1 17.3568-13.1072l111.2576 15.5136c8.3968 1.1776 14.2848 8.96 13.1072 17.3568a15.32928 15.32928 0 0 1-15.2064 13.2608z" fill="#333333" p-id="2981"></path><path d="M488.2432 910.3872a42.30656 42.30656 0 0 1-59.8528 0l-80.2816-77.4144 118.784-0.9216 21.3504 18.4832a42.30656 42.30656 0 0 1 0 59.8528z" fill="#FFA750" p-id="2982"></path><path d="M458.2912 938.0864c-14.7456 0-29.5424-5.632-40.8064-16.8448l-110.0288-110.0288a15.40096 15.40096 0 0 1-3.3792-16.6912 15.32928 15.32928 0 0 1 14.08-9.5232l118.784-0.9216c4.2496-0.2048 8.0896 1.5872 10.9568 4.5056l51.0976 51.0976c22.4768 22.4768 22.4768 59.0848 0 81.5616-11.1616 11.264-25.9072 16.8448-40.704 16.8448z m-103.168-122.6752l84.1216 84.1216c10.496 10.496 27.5968 10.496 38.144 0a27.03872 27.03872 0 0 0 0-38.144l-46.5408-46.5408-75.7248 0.5632z" fill="#333333" p-id="2983"></path><path d="M779.776 387.84c60.928 152.2176 40.96 303.36-44.5952 337.6128-68.9664 27.5968-159.488-29.1328-223.9488-131.8912 39.5776-6.8608 262.2464 18.9952 174.4384-186.3168-74.1376-173.312-217.1392-22.2208-246.1184-4.608-16.9984-109.6192 10.1888-202.496 74.9056-228.4544 85.6064-34.2016 204.3904 61.44 265.3184 213.6576z" fill="#FDCFA5" p-id="2984" data-spm-anchor-id="a313x.7781069.0.i1" class="selected"></path><path d="M570.333917 465.340462a133.9392 64.4608 68.181 1 0 119.685995-47.917028 133.9392 64.4608 68.181 1 0-119.685995 47.917028Z" fill="#BC9BE0" p-id="2985"></path><path d="M432.9472 516.1472c-50.9952-127.3856-39.4752-185.344-23.4496-240.9984L156.9792 510.976c-1.0752 42.5984 4.1472 69.4272 29.6448 121.6512 19.0976 34.7648 42.752 70.6048 86.6816 99.6864l396.2368 7.8848c-86.1184-3.6352-184.0128-92.672-236.5952-224.0512zM160.7168 659.3024c-21.6064-44.288-35.6864-86.3744-34.816-122.5216l-24.4224 22.6304c-33.2288 30.3104-39.6288 78.3872-22.1696 119.8592a106.28096 106.28096 0 0 0 98.816 65.024l55.808-0.4608h0.256c-37.2224-24.6784-57.2416-55.0912-73.472-84.5312z" fill="#FFA750" p-id="2986" data-spm-anchor-id="a313x.7781069.0.i2" class="selected"></path><path d="M540.16 477.44c-24.3712-60.8256-18.2784-121.9584 12.1856-146.688L440.4736 408.832c14.592 94.464 68.608 178.1248 68.608 178.1248l132.7104-11.776c-37.1712-2.6624-79.0016-41.216-101.632-97.7408z" fill="#BC9BE0" p-id="2987"></path><path d="M790.3744 373.0432c-31.488-78.592-79.7184-145.2544-135.8336-187.7504-58.4192-44.1856-118.6304-57.2416-169.6768-36.8128-19.968 7.9872-37.376 20.736-51.9168 37.5296L107.2128 483.072l-34.9696 31.8976C28.3136 555.008 14.336 618.752 37.376 673.536c22.0672 52.4288 72.8576 86.1184 129.6384 86.1184h1.1776l66.2528-0.5632 432.3328-3.5328c2.6624 0.1536 5.2736 0.256 7.936 0.256 17.152 0 33.792-3.1232 49.5104-9.4208 51.0464-20.4288 85.6064-71.4752 97.3824-143.7696 11.3664-69.4784 0.256-150.9888-31.232-229.5808z m-244.3264-5.8368c0.0512-0.2048 0.1024-0.3584 0.2048-0.5632 0.7168-2.048 1.536-3.9936 2.4064-5.888 0.2048-0.4608 0.4608-0.9728 0.6656-1.4336 0.7168-1.4336 1.4848-2.7648 2.2528-4.096 0.4608-0.768 0.9216-1.5872 1.3824-2.304 0.6144-0.9216 1.2288-1.7408 1.8944-2.56 0.768-0.9728 1.4848-1.9968 2.304-2.8672 0.4608-0.5632 1.024-1.024 1.4848-1.536 0.9728-1.024 1.9968-1.9968 3.0208-2.8672 2.8672-2.4064 5.9904-4.352 9.3696-5.6832 4.1984-1.6896 8.704-2.5088 13.4144-2.5088 11.9808 0 25.4976 5.3248 39.168 15.7184 21.3504 16.1792 39.8848 41.9328 52.1728 72.6016 12.288 30.6688 16.64 62.1056 12.3392 88.5248-3.84 23.6544-14.1312 39.8848-28.9792 45.824-5.12 2.048-10.752 2.7648-16.6912 2.304-1.536-0.1024-3.072-0.3584-4.608-0.6144-0.512-0.1024-1.024-0.1536-1.4848-0.256-1.536-0.3072-3.1232-0.768-4.6592-1.2288-0.5632-0.1536-1.0752-0.3584-1.6384-0.512-1.536-0.512-3.1232-1.1264-4.7104-1.792l-1.6896-0.768c-1.5872-0.7168-3.2256-1.536-4.8128-2.4064-0.4608-0.256-0.8704-0.512-1.3312-0.768-20.1216-11.4176-39.9872-33.536-54.4768-61.1328-0.512-1.024-1.0752-2.0992-1.5872-3.1232-0.9216-1.8432-1.8432-3.7376-2.7648-5.632-1.4848-3.2256-2.9184-6.5024-4.3008-9.8816-1.4336-3.5328-2.7136-7.0656-3.8912-10.5984-0.6144-1.792-1.1264-3.6352-1.6896-5.4272-0.512-1.5872-1.024-3.2256-1.4336-4.8128-0.6656-2.4064-1.28-4.7616-1.8432-7.1168-0.2048-0.9728-0.4608-1.8944-0.6656-2.8672-0.6144-2.6624-1.1264-5.3248-1.6384-7.9872l-0.3072-1.7408c-0.4608-2.816-0.9216-5.632-1.2288-8.448-0.0512-0.3072-0.0512-0.6656-0.1024-0.9728-0.8192-6.912-1.1264-13.6192-1.0752-20.0704 0.0512-2.6624 0.1024-5.376 0.3072-7.9872 0.0512-0.4096 0.1024-0.768 0.1024-1.1776 0.256-3.1232 0.6144-6.2464 1.1264-9.2672 0-0.0512 0-0.1536 0.0512-0.2048 0.9216-5.7344 2.2528-11.008 3.9424-15.872z m-25.088 102.3488c1.4848 4.5568 3.1744 9.0624 4.9664 13.568 1.7408 4.352 3.6352 8.6528 5.5808 12.8512 0.7168 1.4848 1.4848 2.9184 2.2016 4.4032 1.3312 2.6112 2.6112 5.2736 3.9936 7.8336 0.9728 1.792 1.9968 3.4816 3.0208 5.2224 1.2288 2.1504 2.4576 4.3008 3.7376 6.3488 1.1776 1.8432 2.4064 3.6352 3.584 5.4272 1.2288 1.8432 2.4576 3.6864 3.6864 5.4784 1.28 1.8432 2.6624 3.584 3.9936 5.3248 1.28 1.6384 2.5088 3.2768 3.7888 4.864 1.3824 1.6896 2.816 3.328 4.2496 4.9664 1.3312 1.4848 2.6112 3.0208 3.9936 4.4544 1.4336 1.536 2.9184 3.072 4.4544 4.5568 1.3824 1.3824 2.816 2.7648 4.2496 4.096 1.4848 1.3824 3.0208 2.7136 4.5568 4.0448 0.7168 0.6144 1.4336 1.3312 2.1504 1.8944l-104.3456 9.2672c-10.24-19.6608-34.8672-69.0688-48.5888-114.176-1.9968-7.2192-3.7888-14.4384-5.4272-21.6064L511.6928 377.856c-4.5056 27.136-1.5872 59.1872 9.2672 91.6992z m-352.9728 259.328h-0.9216c-44.3904 0-84.1216-26.3168-101.3248-67.2768-18.0224-42.8032-7.0656-92.6208 27.2384-123.9552l9.8816-9.0112c0.1024 1.5872 0.256 3.1744 0.4096 4.7616 0.1536 2.2016 0.3584 4.352 0.5632 6.5536 0.4096 4.4032 0.8704 8.7552 1.4336 13.056 0.256 1.9968 0.4608 3.9424 0.768 5.888 0.8192 5.7856 1.792 11.52 2.9184 17.152 0.0512 0.3584 0.1024 0.7168 0.2048 1.0752 1.1776 5.9392 2.6112 11.8272 4.096 17.6128 0.4608 1.792 0.9728 3.584 1.4848 5.3248a297.79456 297.79456 0 0 0 5.5296 17.92c1.3824 3.9424 2.816 7.7824 4.3008 11.6224 0.6656 1.6896 1.3312 3.4304 1.9968 5.0688 2.2528 5.4272 4.608 10.752 7.168 16.0256 0.1024 0.2048 0.2048 0.4608 0.3584 0.6656 1.5872 2.8672 3.1744 5.6832 4.8128 8.5504l1.3824 2.4576c1.3824 2.4064 2.816 4.864 4.3008 7.2704 0.3584 0.5632 0.6656 1.1264 1.024 1.6896 1.7408 2.8672 3.5328 5.7344 5.4272 8.6016 0.4608 0.768 0.9728 1.4848 1.4848 2.2528 1.536 2.304 3.072 4.608 4.7104 6.912 0.512 0.7168 1.024 1.4848 1.536 2.2016 2.048 2.8672 4.1472 5.6832 6.2976 8.5504 0.4608 0.5632 0.9216 1.1264 1.3312 1.6896 1.8432 2.3552 3.7376 4.6592 5.6832 7.0144 0.6656 0.768 1.3312 1.5872 1.9968 2.3552 2.4064 2.816 4.9152 5.632 7.5264 8.3968 0.1536 0.1536 0.3072 0.3584 0.512 0.512 2.4576 2.6112 5.0176 5.1712 7.68 7.7312 0.4096 0.3584 0.7168 0.768 1.1264 1.1264l-22.9376 0.2048z m70.9632-0.5632c-0.6144-0.4096-1.2288-0.8704-1.8432-1.28-1.2288-0.8704-2.4064-1.7408-3.6352-2.6112-1.1776-0.8704-2.304-1.7408-3.4816-2.6112-1.1264-0.8704-2.2528-1.7408-3.3792-2.6624l-3.328-2.7136c-1.0752-0.8704-2.1504-1.792-3.1744-2.6624-1.0752-0.9216-2.0992-1.8432-3.1744-2.816-1.024-0.9216-1.9968-1.792-2.9696-2.7136-1.024-0.9728-1.9968-1.8944-2.9696-2.8672-0.9216-0.9216-1.8944-1.8432-2.816-2.7648-0.9728-0.9728-1.8944-1.9456-2.816-2.9184-0.8704-0.9216-1.792-1.8432-2.6624-2.816-0.9216-0.9728-1.792-1.9968-2.7136-2.9696-0.8192-0.9216-1.6896-1.8944-2.4576-2.816-0.8704-1.024-1.6896-2.048-2.56-3.0208l-2.3552-2.816c-0.8192-1.024-1.6384-2.048-2.4064-3.072-0.7168-0.9728-1.4848-1.8944-2.2016-2.8672-0.768-1.024-1.536-2.0992-2.304-3.1232l-2.0992-2.8672c-0.768-1.0752-1.4848-2.1504-2.2528-3.2256-0.6656-0.9216-1.28-1.8432-1.9456-2.816-0.768-1.1264-1.4848-2.2528-2.2016-3.3792l-1.7408-2.6624c-0.768-1.1776-1.4848-2.3552-2.2528-3.5328-0.512-0.8192-1.0752-1.6896-1.5872-2.5088-0.8192-1.3312-1.5872-2.6112-2.3552-3.9424-0.4096-0.7168-0.8704-1.4336-1.28-2.1504-1.1264-1.9456-2.2528-3.84-3.328-5.7856-0.0512-0.1024-0.1024-0.1536-0.1536-0.256-1.1776-2.048-2.304-4.096-3.4304-6.144-2.4576-5.0688-4.7616-10.24-6.912-15.4624-0.7168-1.6896-1.28-3.4816-1.9456-5.1712-1.3824-3.584-2.7648-7.168-3.9936-10.8544-0.7168-2.2016-1.3824-4.5056-2.048-6.7584-1.024-3.2768-2.048-6.5024-2.9184-9.8304-0.6656-2.4576-1.2288-5.0176-1.792-7.5264-0.768-3.1744-1.536-6.3488-2.2016-9.5744-0.5632-2.6624-0.9728-5.376-1.4336-8.0896-0.5632-3.1744-1.1264-6.3488-1.5872-9.5744-0.4096-2.7648-0.7168-5.632-1.024-8.448-0.3584-3.2256-0.768-6.4512-1.0752-9.728-0.256-2.9184-0.4096-5.8368-0.6144-8.7552-0.2048-3.2768-0.4096-6.6048-0.512-9.9328-0.1024-2.9696-0.1024-5.9904-0.1536-9.0624v-6.9632l260.6592-237.7728-0.4608 1.8432-1.0752 4.3008c-3.584 14.5408-6.144 29.952-7.5264 45.9776-0.1024 1.28-0.256 2.56-0.3584 3.84-0.2048 2.6624-0.3584 5.3248-0.4608 7.9872-0.1536 2.3552-0.256 4.7104-0.3584 7.1168l-0.1536 6.5024c-0.0512 3.072-0.1024 6.0928-0.0512 9.216 0 1.7408 0.0512 3.4816 0.1024 5.2224 0.0512 3.6864 0.2048 7.424 0.4096 11.1616 0.0512 1.28 0.1024 2.56 0.2048 3.84 0.256 4.5056 0.6144 9.0112 1.024 13.5168l0.1536 1.8432c1.536 16.3328 4.0448 32.8704 7.5264 49.5616 1.5872 8.8064 3.7888 18.0736 6.5024 27.4432 0.4608 1.6896 0.9728 3.328 1.4336 5.0176 0.4096 1.536 0.8704 3.0208 1.28 4.5568 1.1264 3.8912 2.304 7.8336 3.5328 11.7248 0.512 1.6896 1.0752 3.3792 1.5872 5.0688 1.28 3.8912 2.6112 7.8336 3.9936 11.7248 0.5632 1.5872 1.0752 3.1744 1.6384 4.7616 1.9456 5.4272 3.9936 10.8032 6.144 16.1792 2.2016 5.4784 4.4544 10.8544 6.8096 16.1792 0.4096 0.9728 0.8704 1.8944 1.28 2.8672 2.048 4.608 4.1984 9.216 6.3488 13.7728 0.2048 0.4608 0.4096 0.8704 0.6656 1.3312a493.8496 493.8496 0 0 0 22.784 41.8816l0.0512 0.0512c27.5456 45.3632 61.0304 83.8144 97.9456 111.7184 7.7824 5.888 15.616 11.2128 23.4496 15.9744l-338.9952 2.7136z m473.856-10.4448c-13.2096 5.2736-27.392 7.5776-42.1888 7.0144-0.1536 0-0.3072-0.0512-0.4608-0.0512-10.0352-0.4096-20.224-2.1504-30.464-5.0176-0.3072-0.1024-0.5632-0.1536-0.8704-0.256-1.536-0.4608-3.1232-0.9728-4.6592-1.4848-1.5872-0.512-3.1744-1.024-4.8128-1.5872-0.768-0.256-1.536-0.5632-2.304-0.8704-17.7152-6.7072-35.8912-16.896-54.016-30.6176-16.128-12.1856-31.5392-26.624-46.08-42.9056-0.0512-0.1024-0.1536-0.1536-0.2048-0.256-2.56-2.9184-5.12-5.888-7.6288-8.9088-0.3584-0.4608-0.768-0.8704-1.1264-1.3312-2.4576-2.9696-4.864-5.9904-7.2704-9.0624-1.7408-2.2016-3.4304-4.5056-5.12-6.7584l-1.8944-2.5088c-1.8432-2.5088-3.6864-5.0688-5.4784-7.68-0.4096-0.5632-0.8192-1.1776-1.2288-1.7408l-0.3072-0.4608 145.152-12.8512c1.28 0.0512 2.5088 0.2048 3.7888 0.2048 8.6016 0 16.9472-1.5872 24.8832-4.7616 25.1904-10.0864 42.1888-34.7648 47.872-69.4272 5.1712-31.8464 0.1536-69.12-14.1312-104.9088-14.336-35.7888-36.4032-66.2016-62.1568-85.6576-28.0064-21.1968-57.344-27.2896-82.5344-17.2032-6.2976 2.5088-12.0832 5.9904-17.3568 10.24L418.56 405.3504c-12.0832-81.408 0.5632-155.9552 37.3248-198.8608 0.3072-0.3584 0.512-0.7168 0.768-1.0752 11.1616-12.5952 24.3712-22.3232 39.6288-28.416 11.9808-4.8128 24.7296-7.168 38.0416-7.168 31.8464 0 66.816 13.568 101.6832 39.9872 51.7632 39.1168 96.4096 101.1712 125.8496 174.6432 59.6992 149.0944 37.7344 298.6496-49.0496 333.4144z" fill="#333333" p-id="2988"></path></svg>